{
  "asset": {
    "version": "2.0",
    "generator": "Codex Sphere Generator"
  },
  "scene": 0,
  "scenes": [
    {
      "nodes": [0]
    }
  ],
  "nodes": [
    {
      "mesh": 0,
      "name": "MetalSphere"
    }
  ],
  "meshes": [
    {
      "name": "MetalSphere",
      "primitives": [
        {
          "attributes": {
            "POSITION": 0,
            "NORMAL": 1,
            "TEXCOORD_0": 2
          },
          "indices": 3,
          "material": 0
        }
      ]
    }
  ],
  "materials": [
    {
      "name": "PolishedMetal",
      "pbrMetallicRoughness": {
        "baseColorFactor": [0.95, 0.95, 0.95, 1.0],
        "metallicFactor": 1.0,
        "roughnessFactor": 0.18
      }
    }
  ],
  "buffers": [
    {
      "byteLength": 93216,
      "uri": "data:application/octet-stream;base64,"
    }
  ],
  "bufferViews": [
    {
      "buffer": 0,
      "byteOffset": 0,
      "byteLength": 25740
    },
    {
      "buffer": 0,
      "byteOffset": 25740,
      "byteLength": 25740
    },
    {
      "buffer": 0,
      "byteOffset": 51480,
      "byteLength": 17160
    },
    {
      "buffer": 0,
      "byteOffset": 68640,
      "byteLength": 24576
    }
  ],
  "accessors": [
    {
      "bufferView": 0,
      "componentType": 5126,
      "count": 2145,
      "type": "VEC3",
      "min": [-1.0, -1.0, -1.0],
      "max": [1.0, 1.0, 1.0]
    },
    {
      "bufferView": 1,
      "componentType": 5126,
      "count": 2145,
      "type": "VEC3"
    },
    {
      "bufferView": 2,
      "componentType": 5126,
      "count": 2145,
      "type": "VEC2"
    },
    {
      "bufferView": 3,
      "componentType": 5123,
      "count": 12288,
      "type": "SCALAR"
    }
  ]
}
